<svg xmlns="http://www.w3.org/2000/svg" viewBox="0 0 64 64" role="img" aria-labelledby="title">
  <title id="title">Microchip logo</title>
  <defs>
    <linearGradient id="chipGradient" x1="10" y1="11" x2="56" y2="56" gradientUnits="userSpaceOnUse">
      <stop stop-color="#35D8E8"/>
      <stop offset="1" stop-color="#5B8DEF"/>
    </linearGradient>
  </defs>
  <path fill="url(#chipGradient)" d="M23 4h6v10h6V4h6v10h5a4 4 0 0 1 4 4v5h10v6H50v6h10v6H50v5a4 4 0 0 1-4 4h-5v10h-6V50h-6v10h-6V50h-5a4 4 0 0 1-4-4v-5H4v-6h10v-6H4v-6h10v-5a4 4 0 0 1 4-4h5V4Zm-1 18v20h20V22H22Z"/>
</svg>
